<?xml version="1.0" standalone="no"?>
<!DOCTYPE svg PUBLIC "-//W3C//DTD SVG 20010904//EN"
 "http://www.w3.org/TR/2001/REC-SVG-20010904/DTD/svg10.dtd">
<svg version="1.0" xmlns="http://www.w3.org/2000/svg"
 width="96.000000pt" height="96.000000pt" viewBox="0 0 96.000000 96.000000"
 preserveAspectRatio="xMidYMid meet">

<g transform="translate(0.000000,96.000000) scale(0.100000,-0.100000)"
fill="#000000" stroke="none">
<path d="M486 724 c-23 -23 -20 -51 9 -70 23 -15 27 -15 50 0 30 19 32 46 7
69 -23 21 -46 22 -66 1z"/>
<path d="M302 528 c-80 -44 -137 -149 -112 -208 11 -26 46 -50 75 -50 22 0 75
50 75 71 0 22 32 44 77 54 18 4 40 16 48 28 21 31 19 83 -5 107 -28 28 -104
27 -158 -2z"/>
<path d="M670 425 c0 -40 -32 -90 -70 -110 -26 -13 -29 -19 -20 -35 24 -44
105 -36 128 13 11 23 11 38 2 77 -6 27 -18 57 -25 67 -13 17 -14 16 -15 -12z"/>
</g>
</svg>
